<svg id="visual" viewBox="0 0 900 600" width="900" height="600" xmlns="http://www.w3.org/2000/svg" xmlns:xlink="http://www.w3.org/1999/xlink" version="1.1"><rect x="0" y="0" width="900" height="600" fill="#070022"></rect><path d="M0 388L129 362L257 393L386 374L514 385L643 356L771 429L900 369L900 601L771 601L643 601L514 601L386 601L257 601L129 601L0 601Z" fill="#0073a5"></path><path d="M0 464L129 420L257 401L386 479L514 427L643 404L771 445L900 430L900 601L771 601L643 601L514 601L386 601L257 601L129 601L0 601Z" fill="#005b9c"></path><path d="M0 446L129 440L257 488L386 505L514 483L643 458L771 475L900 472L900 601L771 601L643 601L514 601L386 601L257 601L129 601L0 601Z" fill="#00428e"></path><path d="M0 507L129 516L257 531L386 533L514 537L643 521L771 488L900 506L900 601L771 601L643 601L514 601L386 601L257 601L129 601L0 601Z" fill="#12267b"></path><path d="M0 551L129 552L257 569L386 560L514 552L643 557L771 558L900 554L900 601L771 601L643 601L514 601L386 601L257 601L129 601L0 601Z" fill="#210063"></path></svg>